<svg version="1.2" xmlns="http://www.w3.org/2000/svg" viewBox="0 0 200 200" width="200" height="200"><style></style><path  d="m100.8 194.4c-0.6 0-1.2-0.2-1.6-0.7l-79.4-79.3c-0.9-0.9-0.9-2.4 0-3.3l79.2-79.1c0.9-0.9 2.4-0.9 3.3 0l46.8 46.7c0.9 0.9 0.9 2.4 0 3.3-0.9 1-2.4 1-3.3 0l-45.1-45.1-75.9 75.9 76 76 75.9-75.9-9.7-9.6c-0.9-0.9-0.9-2.4 0-3.3 0.9-0.9 2.4-0.9 3.4 0l11.2 11.3c1 0.9 1 2.4 0 3.3l-79.1 79.1c-0.5 0.5-1.1 0.7-1.7 0.7z"/><path  d="m100.8 169.2c-0.6 0-1.2-0.3-1.6-0.7l-58.4-58.4c-1-0.9-1-2.4 0-3.3 0.9-1 2.4-1 3.3 0l56.7 56.7 75.9-75.8-76-76-75.9 75.8 9.6 9.6c0.9 0.9 0.9 2.4 0 3.3-0.9 0.9-2.4 0.9-3.3 0l-11.3-11.2c-0.9-1-0.9-2.4 0-3.4l79.2-79.1c0.9-0.9 2.4-0.9 3.3 0l79.3 79.3c1 0.9 1 2.4 0 3.3l-79.1 79.2c-0.5 0.4-1.1 0.7-1.7 0.7z"/></svg>