<svg version="1.2" xmlns="http://www.w3.org/2000/svg" viewBox="0 0 200 200" width="200" height="200"><style></style><path fill-rule="evenodd" d="m16.8 53.7c0-0.7 0.6-1.3 1.2-1.3h128.6c0.7 0 1.3 0.6 1.3 1.3v128.8c0 0.7-0.6 1.2-1.3 1.2h-128.6c-0.6 0-1.2-0.5-1.2-1.2zm5.2 124.8h120.7v-120.9h-120.7z"/><path  d="m180.6 146h-125.8c-1.5 0-2.6-1.1-2.6-2.6v-43.3c0-1.4 1.1-2.6 2.6-2.6h32c1.5 0 2.6 1.2 2.6 2.6 0 1.4-1.1 2.6-2.6 2.6h-29.4v38.1h120.6v-120.9h-120.6v35.1c0 1.4-1.2 2.6-2.6 2.6-1.5 0-2.6-1.2-2.6-2.6v-37.7c0-1.4 1.1-2.6 2.6-2.6h125.8c1.5 0 2.6 1.2 2.6 2.6v126.1c0 1.5-1.1 2.6-2.6 2.6z"/></svg>