<svg version="1.2" xmlns="http://www.w3.org/2000/svg" viewBox="0 0 200 200" width="200" height="200">
	<path fill-rule="evenodd" d="m100.7 193.9c-0.7 0-1.4-0.3-1.9-0.8l-90.7-90.7c-0.5-0.5-0.8-1.2-0.8-1.9 0-0.7 0.3-1.4 0.8-1.9l90.5-90.5c1-1.1 2.7-1.1 3.8 0l90.7 90.7c1 1 1 2.7 0 3.8l-90.5 90.5c-0.6 0.5-1.2 0.8-1.9 0.8zm-86.9-93.4l86.9 86.9 86.7-86.7-86.9-86.9z"/><path  d="m99 141.3c-0.7 0-1.4-0.2-1.9-0.7l-31.2-31.2c-1-1.1-1-2.8 0-3.8l23.1-23.1c1-1 2.8-1 3.8 0 1.1 1.1 1.1 2.8 0 3.8l-21.2 21.2 27.4 27.4 63.2-63.2c1-1.1 2.7-1.1 3.8 0 1 1 1 2.7 0 3.8l-65.1 65.1c-0.5 0.5-1.2 0.7-1.9 0.7z"/>
</svg>
